<svg id="Layer_2" enable-background="new 0 0 139 139" height="139" viewBox="0 0 139 139" width="139" xmlns="http://www.w3.org/2000/svg"><path d="m69.499 132.335c-34.646 0-62.833-28.188-62.833-62.835s28.187-62.834 62.833-62.834c34.647 0 62.835 28.187 62.835 62.834s-28.188 62.835-62.835 62.835zm0-115.669c-29.132 0-52.833 23.701-52.833 52.834 0 29.134 23.701 52.835 52.833 52.835 29.133 0 52.835-23.701 52.835-52.835 0-29.133-23.702-52.834-52.835-52.834z"/><path d="m84.22 96.289-.99 4.048c-2.97 1.173-5.344 2.065-7.111 2.679-1.769.615-3.824.922-6.167.922-3.596 0-6.394-.881-8.389-2.631-1.995-1.757-2.993-3.984-2.993-6.685 0-1.046.072-2.121.223-3.217.152-1.096.393-2.333.723-3.714l3.713-13.14c.33-1.259.611-2.451.836-3.579.228-1.12.338-2.151.338-3.079 0-1.678-.348-2.852-1.039-3.512-.692-.658-2.012-.992-3.972-.992-.96 0-1.946.154-2.952.451-1.01.298-1.873.587-2.598.855l.993-4.052c2.432-.99 4.757-1.838 6.981-2.542 2.224-.706 4.325-1.059 6.313-1.059 3.571 0 6.328.863 8.263 2.59 1.936 1.728 2.904 3.967 2.904 6.728 0 .571-.064 1.577-.2 3.015-.134 1.442-.382 2.762-.745 3.963l-3.697 13.089c-.303 1.051-.575 2.252-.812 3.605-.244 1.344-.361 2.37-.361 3.059 0 1.738.387 2.924 1.164 3.556.783.631 2.13.944 4.044.944.9 0 1.923-.16 3.059-.473 1.135-.313 1.961-.589 2.472-.829zm.939-54.95c0 2.28-.859 4.228-2.586 5.829-1.723 1.607-3.8 2.411-6.227 2.411-2.437 0-4.518-.804-6.26-2.411-1.74-1.602-2.611-3.549-2.611-5.829 0-2.276.871-4.227 2.611-5.849 1.739-1.619 3.823-2.428 6.26-2.428 2.427 0 4.504.811 6.227 2.428 1.727 1.622 2.586 3.573 2.586 5.849z"/></svg>