<svg id="Layer_1" enable-background="new 0 0 100 100" viewBox="0 0 100 100" xmlns="http://www.w3.org/2000/svg"><path d="m50 12c9.3479996 0 18.1386642 3.3693342 25.0800018 9.5h-6.0673447c-2.6233444 0-4.7499924 2.126646-4.7499924 4.7499943v.0000114c.0000001 2.6233483 2.126648 4.7499943 4.7499925 4.7499943h14.2373505c2.623352 0 4.7499923-2.126646 4.7499923-4.7499943v-14.2373428c0-2.6233501-2.1266403-4.7499952-4.7499924-4.7499952h-.0000153c-2.6233444 0-4.7499923 2.126645-4.7499923 4.7499952v.0633383c-8.182663-6.1813341-18.062664-9.5760012-28.5-9.5760012-24.3991241 0-44.5562367 18.4846478-47.2049754 42.1875839-.3160269 2.8280525 1.87652 5.3124161 4.7221744 5.3124161h.0013342c2.4369636 0 4.4478087-1.8485603 4.7199349-4.2702789 2.1292458-18.9486618 18.2542439-33.7297211 37.7615319-33.7297211z"/><path d="m92.4814682 50c-2.4369659 0-4.4478073 1.8485603-4.7199402 4.2702827-2.1292419 18.948658-18.2542343 33.7297173-37.761528 33.7297173-9.3226662 0-18.1386681-3.3693314-25.0799999-9.5h6.0673351c2.6233521 0 4.7499962-2.1266479 4.7499962-4.7499924v-.0000153c0-2.6233444-2.1266441-4.7499923-4.7499962-4.7499923h-14.2373409c-2.6233492 0-4.7499943 2.1266479-4.7499943 4.7499924v14.2626801c0 2.6233444 2.1266451 4.7499924 4.7499943 4.7499924h.0000095c2.6233501 0 4.7499962-2.1266479 4.7499962-4.7499924v-.0633392c8.1826687 6.1813277 18.0626678 9.5506667 28.5 9.5506667 24.3991241 0 44.5562363-18.4846497 47.2049789-42.1875839.3160248-2.8280525-1.8765258-5.3124161-4.7221756-5.3124161z"/></svg>